<svg xmlns="http://www.w3.org/2000/svg" viewBox="0 0 468.283 468.283" id="sick">
  <path fill="#4c4c4c" d="M189.448 132.932c-2.689 0-4.45-3.465-2.765-5.642a19.724 19.724 0 0 1 26.229-4.629 3.499 3.499 0 0 1 1.091 4.828 3.502 3.502 0 0 1-4.828 1.092 12.751 12.751 0 0 0-16.958 2.994 3.491 3.491 0 0 1-2.769 1.357zm20.109 13.942c.652 3.796-1.45 7.347-4.695 7.933-3.245.586-6.405-2.017-7.057-5.812-.652-3.796 1.45-7.347 4.695-7.933 3.245-.586 6.405 2.017 7.057 5.812zm69.181-14.386a3.493 3.493 0 0 1-2.77-1.358 12.753 12.753 0 0 0-16.957-2.994 3.5 3.5 0 0 1-3.737-5.92 19.725 19.725 0 0 1 26.229 4.629c1.686 2.178-.076 5.643-2.765 5.643zm-8.349 16.019c-.684 3.79-3.872 6.408-7.122 5.847-3.25-.561-5.33-4.088-4.646-7.878s3.872-6.408 7.122-5.847c3.25.561 5.33 4.088 4.646 7.878z"></path>
  <circle cx="179.943" cy="249.5" r="6.5" fill="#4c4c4c"></circle>
  <path fill="#4c4c4c" d="M389.141 308.452h-44.036c-6.701-17.868-17.608-33.689-31.493-46.282 9.859-10.742 16.024-24.394 17.416-38.923 1.975-20.617-3.279-40.936-15.204-59.015 9.116-.375 17.909-5.418 22.242-12.797h16.02a5 5 0 0 0 5-5V19.283a5 5 0 0 0-5-5h-69.457c-28.852-19.025-70.864-19.062-99.772 0h-70.66a5 5 0 0 0-5 5v127.152a5 5 0 0 0 5 5h16.02c4.835 8.234 14.032 13.274 23.583 12.804 5.536 25.718 23.141 46.996 46.576 57.604v35.829c0 18.479 15.539 33.897 34.013 33.76.208 1.869 1.659 3.582 3.485 4.146 7.089 2.255 19.049-2.473 25.749-4.427 15.432-4.499 30.414-11.654 42.759-22.066 12.049 10.784 21.687 24.211 27.982 39.366H133.919c6.813-16.403 17.541-30.779 31.008-41.966 1.17-.972 1.945-2.381 1.964-3.901.053-4.272-4.913-6.625-8.188-3.913-15.817 13.096-28.189 30.214-35.526 49.781H79.141a5 5 0 0 0-5 5v149.831a5 5 0 0 0 5 5h310a5 5 0 0 0 5-5V313.452a5 5 0 0 0-5-5zm-73.157-154.194c.217-2.411.343-31.158.343-31.158 8.673.314 15.307 5.843 15.307 15.204.001 8.722-6.999 15.822-15.65 15.954zm-179.336-15.954c0-8.605 6.816-15.623 15.307-15.936 0 10.573-.599 21.346.336 31.891-8.647-.137-15.643-7.236-15.643-15.955zm25.307 8.639v-12.718l17.687 32.602-8.147 15.911a71.71 71.71 0 0 1-9.54-35.795zm2.147-25.537c26.167-1.02 51.31-9.743 56.566-38.776 20.268 25.161 52.829 36.71 84.092 39.712l-22.091 40.432h-96.124l-22.443-41.368zm90.143 106.421a134.272 134.272 0 0 1-15.02 53.038c-14.57 3.203-28.849-8.274-28.849-23.193v-32.06c14.191 4.295 29.568 4.645 43.941 1.004-.024.404-.044.808-.072 1.211zm33.895-33.084c-29.477 33.162-84.781 31.09-111.585-4.332l10.055-19.637h95.904l9.268 19.507a73.162 73.162 0 0 1-3.642 4.462zm10.296-15.063a71.22 71.22 0 0 1-1.51 2.786l-7.395-15.565 16.797-30.742c-.001 15.342-.92 29.696-7.892 43.521zm-57.033-90.62c-14.491-11.414-19.552-22.812-19.593-22.907-1.945-4.581-9.1-3.588-9.58 1.482-1.199 12.647-2.56 25.065-12.891 33.998-11.792 10.198-29.293 9.688-43.942 10.025l.99-25.852c1.686-45.177 36.637-75.913 81.341-75.524 42.361 0 73.891 34.408 75.371 75.532l1.084 27.19c-37.171-1.827-60.003-13.879-72.78-23.944z"></path>
</svg>
